<mxfile host="app.diagrams.net" modified="2024-05-07T08:42:28.759Z" agent="Mozilla/5.0 (Windows NT 10.0; Win64; x64) AppleWebKit/537.36 (KHTML, like Gecko) Chrome/124.0.0.0 Safari/537.36" etag="77M5a7ko-TbKtqYccxoD" version="24.3.1" type="onedrive">
  <diagram name="Pagina-1" id="VeNqdE-GoRsoN_TaVGO-">
    <mxGraphModel grid="1" page="1" gridSize="10" guides="1" tooltips="1" connect="1" arrows="1" fold="1" pageScale="1" pageWidth="827" pageHeight="1169" math="0" shadow="0">
      <root>
        <mxCell id="0" />
        <mxCell id="1" parent="0" />
        <mxCell id="YExJR0wcEYklxGMGWOr0-1" value="" style="strokeWidth=1;shadow=0;dashed=0;align=center;html=1;shape=mxgraph.mockup.containers.browserWindow;rSize=0;strokeColor=#666666;strokeColor2=#008cff;strokeColor3=#c4c4c4;mainText=,;recursiveResize=0;" vertex="1" parent="1">
          <mxGeometry width="1240" height="560" as="geometry" />
        </mxCell>
        <mxCell id="YExJR0wcEYklxGMGWOr0-2" value="Login" style="strokeWidth=1;shadow=0;dashed=0;align=center;html=1;shape=mxgraph.mockup.containers.anchor;fontSize=17;fontColor=#666666;align=left;whiteSpace=wrap;" vertex="1" parent="YExJR0wcEYklxGMGWOr0-1">
          <mxGeometry x="60" y="12" width="110" height="26" as="geometry" />
        </mxCell>
        <mxCell id="YExJR0wcEYklxGMGWOr0-3" value="https://www.draw.io" style="strokeWidth=1;shadow=0;dashed=0;align=center;html=1;shape=mxgraph.mockup.containers.anchor;rSize=0;fontSize=17;fontColor=#666666;align=left;" vertex="1" parent="YExJR0wcEYklxGMGWOr0-1">
          <mxGeometry x="130" y="60" width="250" height="26" as="geometry" />
        </mxCell>
        <mxCell id="YExJR0wcEYklxGMGWOr0-4" value="" style="strokeWidth=1;shadow=0;dashed=0;align=center;html=1;shape=mxgraph.mockup.forms.rrect;rSize=0;strokeColor=#999999;fillColor=#ffffff;" vertex="1" parent="YExJR0wcEYklxGMGWOr0-1">
          <mxGeometry x="520" y="160" width="200" height="300" as="geometry" />
        </mxCell>
        <mxCell id="YExJR0wcEYklxGMGWOr0-5" value="Sign In" style="strokeWidth=1;shadow=0;dashed=0;align=center;html=1;shape=mxgraph.mockup.forms.anchor;fontSize=12;fontColor=#666666;align=left;resizeWidth=1;spacingLeft=0;" vertex="1" parent="YExJR0wcEYklxGMGWOr0-4">
          <mxGeometry width="100" height="20" relative="1" as="geometry">
            <mxPoint x="10" y="10" as="offset" />
          </mxGeometry>
        </mxCell>
        <mxCell id="YExJR0wcEYklxGMGWOr0-6" value="" style="shape=line;strokeColor=#ddeeff;strokeWidth=2;html=1;resizeWidth=1;" vertex="1" parent="YExJR0wcEYklxGMGWOr0-4">
          <mxGeometry width="180" height="10" relative="1" as="geometry">
            <mxPoint x="10" y="30" as="offset" />
          </mxGeometry>
        </mxCell>
        <mxCell id="YExJR0wcEYklxGMGWOr0-7" value="User Name:" style="strokeWidth=1;shadow=0;dashed=0;align=center;html=1;shape=mxgraph.mockup.forms.anchor;fontSize=12;fontColor=#666666;align=left;resizeWidth=1;spacingLeft=0;" vertex="1" parent="YExJR0wcEYklxGMGWOr0-4">
          <mxGeometry width="100" height="20" relative="1" as="geometry">
            <mxPoint x="10" y="40" as="offset" />
          </mxGeometry>
        </mxCell>
        <mxCell id="YExJR0wcEYklxGMGWOr0-8" value="username" style="strokeWidth=1;shadow=0;dashed=0;align=center;html=1;shape=mxgraph.mockup.forms.rrect;rSize=0;strokeColor=#999999;fontColor=#666666;align=left;spacingLeft=5;resizeWidth=1;" vertex="1" parent="YExJR0wcEYklxGMGWOr0-4">
          <mxGeometry width="150" height="25" relative="1" as="geometry">
            <mxPoint x="10" y="60" as="offset" />
          </mxGeometry>
        </mxCell>
        <mxCell id="YExJR0wcEYklxGMGWOr0-9" value="Password:" style="strokeWidth=1;shadow=0;dashed=0;align=center;html=1;shape=mxgraph.mockup.forms.anchor;fontSize=12;fontColor=#666666;align=left;resizeWidth=1;spacingLeft=0;" vertex="1" parent="YExJR0wcEYklxGMGWOr0-4">
          <mxGeometry width="100" height="20" relative="1" as="geometry">
            <mxPoint x="10" y="95" as="offset" />
          </mxGeometry>
        </mxCell>
        <mxCell id="YExJR0wcEYklxGMGWOr0-10" value="********" style="strokeWidth=1;shadow=0;dashed=0;align=center;html=1;shape=mxgraph.mockup.forms.rrect;rSize=0;strokeColor=#999999;fontColor=#666666;align=left;spacingLeft=5;resizeWidth=1;" vertex="1" parent="YExJR0wcEYklxGMGWOr0-4">
          <mxGeometry width="150" height="25" relative="1" as="geometry">
            <mxPoint x="10" y="115" as="offset" />
          </mxGeometry>
        </mxCell>
        <mxCell id="YExJR0wcEYklxGMGWOr0-11" value="SIGN IN" style="strokeWidth=1;shadow=0;dashed=0;align=center;html=1;shape=mxgraph.mockup.forms.rrect;rSize=5;strokeColor=none;fontColor=#ffffff;fillColor=#66bbff;fontSize=16;fontStyle=1;" vertex="1" parent="YExJR0wcEYklxGMGWOr0-4">
          <mxGeometry y="1" width="80" height="30" relative="1" as="geometry">
            <mxPoint x="20" y="-150" as="offset" />
          </mxGeometry>
        </mxCell>
        <mxCell id="YExJR0wcEYklxGMGWOr0-12" value="Forgot Password?" style="strokeWidth=1;shadow=0;dashed=0;align=center;html=1;shape=mxgraph.mockup.forms.anchor;fontSize=12;fontColor=#9999ff;align=left;spacingLeft=0;fontStyle=4;resizeWidth=1;" vertex="1" parent="YExJR0wcEYklxGMGWOr0-4">
          <mxGeometry y="1" width="150" height="20" relative="1" as="geometry">
            <mxPoint x="10" y="-110" as="offset" />
          </mxGeometry>
        </mxCell>
        <mxCell id="YExJR0wcEYklxGMGWOr0-13" value="" style="shape=line;strokeColor=#ddeeff;strokeWidth=2;html=1;resizeWidth=1;" vertex="1" parent="YExJR0wcEYklxGMGWOr0-4">
          <mxGeometry y="1" width="180" height="10" relative="1" as="geometry">
            <mxPoint x="10" y="-90" as="offset" />
          </mxGeometry>
        </mxCell>
        <mxCell id="YExJR0wcEYklxGMGWOr0-14" value="New User" style="strokeWidth=1;shadow=0;dashed=0;align=center;html=1;shape=mxgraph.mockup.forms.anchor;fontSize=12;fontColor=#666666;align=left;spacingLeft=0;resizeWidth=1;" vertex="1" parent="YExJR0wcEYklxGMGWOr0-4">
          <mxGeometry y="1" width="150" height="20" relative="1" as="geometry">
            <mxPoint x="10" y="-70" as="offset" />
          </mxGeometry>
        </mxCell>
        <mxCell id="YExJR0wcEYklxGMGWOr0-15" value="SIGN UP" style="strokeWidth=1;shadow=0;dashed=0;align=center;html=1;shape=mxgraph.mockup.forms.rrect;rSize=5;strokeColor=none;fontColor=#ffffff;fillColor=#66bbff;fontSize=16;fontStyle=1;" vertex="1" parent="YExJR0wcEYklxGMGWOr0-4">
          <mxGeometry y="1" width="80" height="30" relative="1" as="geometry">
            <mxPoint x="20" y="-50" as="offset" />
          </mxGeometry>
        </mxCell>
        <mxCell id="YExJR0wcEYklxGMGWOr0-16" value="" style="strokeWidth=1;shadow=0;dashed=0;align=center;html=1;shape=mxgraph.mockup.containers.browserWindow;rSize=0;strokeColor=#666666;strokeColor2=#008cff;strokeColor3=#c4c4c4;mainText=,;recursiveResize=0;" vertex="1" parent="1">
          <mxGeometry x="1" y="600" width="1240" height="560" as="geometry" />
        </mxCell>
        <mxCell id="YExJR0wcEYklxGMGWOr0-17" value="HomePage" style="strokeWidth=1;shadow=0;dashed=0;align=center;html=1;shape=mxgraph.mockup.containers.anchor;fontSize=17;fontColor=#666666;align=left;whiteSpace=wrap;" vertex="1" parent="YExJR0wcEYklxGMGWOr0-16">
          <mxGeometry x="60" y="12" width="110" height="26" as="geometry" />
        </mxCell>
        <mxCell id="YExJR0wcEYklxGMGWOr0-18" value="https://www.draw.io" style="strokeWidth=1;shadow=0;dashed=0;align=center;html=1;shape=mxgraph.mockup.containers.anchor;rSize=0;fontSize=17;fontColor=#666666;align=left;" vertex="1" parent="YExJR0wcEYklxGMGWOr0-16">
          <mxGeometry x="130" y="60" width="250" height="26" as="geometry" />
        </mxCell>
        <mxCell id="YExJR0wcEYklxGMGWOr0-31" value="Select APT" style="strokeWidth=1;shadow=0;dashed=0;align=center;html=1;shape=mxgraph.mockup.forms.comboBox;strokeColor=#999999;fillColor=#ddeeff;align=left;fillColor2=#aaddff;mainText=;fontColor=#666666;fontSize=17;spacingLeft=3;" vertex="1" parent="YExJR0wcEYklxGMGWOr0-16">
          <mxGeometry x="430" y="190" width="150" height="30" as="geometry" />
        </mxCell>
        <mxCell id="YExJR0wcEYklxGMGWOr0-32" value="" style="verticalLabelPosition=bottom;shadow=0;dashed=0;align=center;html=1;verticalAlign=top;strokeWidth=1;shape=mxgraph.mockup.graphics.columnChart;strokeColor=none;strokeColor2=none;strokeColor3=#666666;fillColor2=#008cff;fillColor3=#dddddd;" vertex="1" parent="YExJR0wcEYklxGMGWOr0-16">
          <mxGeometry x="100" y="290" width="400" height="200" as="geometry" />
        </mxCell>
        <mxCell id="YExJR0wcEYklxGMGWOr0-33" value="Select Device" style="strokeWidth=1;shadow=0;dashed=0;align=center;html=1;shape=mxgraph.mockup.forms.comboBox;strokeColor=#999999;fillColor=#ddeeff;align=left;fillColor2=#aaddff;mainText=;fontColor=#666666;fontSize=17;spacingLeft=3;" vertex="1" parent="YExJR0wcEYklxGMGWOr0-16">
          <mxGeometry x="640" y="190" width="150" height="30" as="geometry" />
        </mxCell>
        <mxCell id="YExJR0wcEYklxGMGWOr0-34" value="" style="verticalLabelPosition=bottom;shadow=0;dashed=0;align=center;html=1;verticalAlign=top;strokeWidth=1;shape=mxgraph.mockup.graphics.lineChart;strokeColor=none;strokeColor2=#666666;strokeColor3=#008cff;strokeColor4=#dddddd;" vertex="1" parent="YExJR0wcEYklxGMGWOr0-16">
          <mxGeometry x="720" y="290" width="400" height="200" as="geometry" />
        </mxCell>
        <mxCell id="YExJR0wcEYklxGMGWOr0-42" value="" style="rounded=0;whiteSpace=wrap;html=1;" vertex="1" parent="YExJR0wcEYklxGMGWOr0-16">
          <mxGeometry y="110" width="1240" height="50" as="geometry" />
        </mxCell>
        <mxCell id="YExJR0wcEYklxGMGWOr0-43" value="" style="shape=image;verticalLabelPosition=bottom;labelBackgroundColor=default;verticalAlign=top;aspect=fixed;imageAspect=0;image=data:image/png,iVBORw0KGgoAAAANSUhEUgAAAZAAAAGQCAYAAACAvzbMAAAAGXRFWHRTb2Z0d2FyZQBBZG9iZSBJbWFnZVJlYWR5ccllPAAADapJREFUeNrs3U1229YZgOHrpAtQZ50ZO7Ay68z0sKOoKwi8gqgrKLsCpSuQO+pQ7goor8DyCqiuQOqsM5eIwFRxJEukKOL77n2ec+5xck4byQCIl7j4KwUAAAAAAAAAAAAAAAAAAAAAAAAAAAAAAAAAAAAAAAAAAAAAAAAAAAAAAAAAAAAAAAAAAAAAAAAAAAAAAAAAAAAAAAAAAAAAAAAAAAAAAAAAAAAAAAAAAAAAAAAAAAAAAAAAAAAAAAAAAAAAAAAAAAAAAAAAAAAAAAAAAAAAAACgVi8sAirXjWMq16txYTUA5DNfjc8TjoVVQK2+sQgAEBAABAQAAQFAQABAQAAQEAAEBAABAUBAAEBAABAQAAQEAAEBQEAAQEAAEBAABAQAAQFAQABAQAAQEAAEBAABAUBAAEBAWtetxoHFQIDtEAEhkcPV+LgaCxFhQv1qLMc/gSTxuFqNz+P42HBE5reWwxRj0Xg8bi8LEYFk8Wg9IgISIx4iAknj0XJEBCROPEQEksaj1YgISKx4iAgkjUeLERGQePEQEUgaj9YiIiAx4yEikDQeLUVEQOLGQ0QgaTxaiYiAxI6HiEDSeLQQEQGJHw8RgaTxqD0iApIjHiICSeNRc0QEJE88RASSxqPWiAhIrniICCSNR40REZB88RARSBqP2iIiIDnjISKQNB41RURA8sZDRCBpPGqJiIDkjoeIQNJ41BARAckfDxGBpPHIHhEBqSMeIgJJ45E5IgJSTzxEBJLGI2tEBKSueIgIJI1HxogISH3xEBG45SzZBzdTRASkznh8Hr90Hdh9TOcbiyCEt6txkfCoaeEDXIUhHqfJfufr1Xgz/omANG39YRARxKPez4uA4EMhIuLhc4KA+HCIiHj4fCAgIiIiiAcCgoggHuIhIIgI4iEeAoIPj4iIh+2fW35nEaT5EC3GHXO2iGS8Vv9yHF86SLYOxAMBQUSeIQ4fxt9pvYM63+K/1Y1jHZaX47/PxEM8IJphRzU8QsRjTx5v2JnPxz/3+TscjjvvfuJ4ZHw8yaGPOohIje9Yz0I8ABFBPAARERHxEA8QERERD/EAERER8RAPEBEREQ/xAEQE8QBERETEQzxARJ5rnFl1G5mJByAipZw4AtnK0bhTFg+guYhclVjPjcq6ns/EA2gpImeOOnbqWDyAFiJybLU8i2FHvRQPoMaImLLaz7peiAdQU0SGn91ZDXtzIh5ADRHxettp9OIBZI7IqUU+eUT2damveICIiEdlDvcQEfEAEREPEREPYLqIiEc7EREPEBHxaCgi4gGEi4h45NCLBxApIh7J3k5ExAPYWUSW4pHSqXgAU0bEDiW3hXUNTBWR3uJKv64f8wBG8QB2GpETi6kKD12ZJR7ATiPy0eKpylw8gH1ExE6lTgvrmU28sAh4ZEQWt3Ymf1mNnyr5u3Xj32sYL8v/Hzk/u+N/ezmOwYfVuF6Ni9U4r2hZrC/HHv5ub8a/H8BOjkQWFewk+3LzSt1dPtZjWC7zCr6xHzvyAJ4rIl3S37sv+3uM/XBV00nJ+wKtzqYOtG7YEZ6W/b0P474jk96qAMgVjs+BxlJIAOIapqqmfBf4Y49InF8ACOSoTDtVtek4KZ4fBjD5UUe06apNprUcjQBMYNj57uvKquccx1YlwP5km7LyMi6AAPqKwvHlCXbnRQDEw5sdAcRDRADEo+SZzgLgiR564VGtw4l1gCcYpnJqutpq09HbBAC2s2g4HuvhZkOADc3Fw+uDietbi4Cghm/d/7QYfvaHcvP20HOLAuBhpq5+OzqbBcDX9WLh0l6AbSzF4t4xs3kAOPpwFALg6MNRCO35xiJ4snlFO6apDY9o72xSD/oxwO9Qy0UOjugEhB04D/A7/GA1pAnthdWAgBBlh9CNO0YeH5EpfbIKEBDW/t34DjGbqY/WHIEgIITZIXxvFWzksEw7jSUgCAi/OJ/wZw9P3J1ZBRubepmJiIBAuW58R5jV941vNwgIAUz9TdLjynMutw9WgYDA1F5bBFvpinenIyA0/k3SEUjOZecciIDA5HyL3t5swp/tHIiAQLM7QEBAeKJziyCtVxP+7EuLX0BgSqav8i4/AREQmJQT6CAgAAgIAAgIAAJCjS4tAhAQEJC2uIJOQMB7yBOb8nEirqATEPBiosT+YxEgILTK85QEGAEhsZcT//xzq2BrlxP+bFNYAgKTnwPxLTrnsnMSXUBg8oB8sgpSHrm9sgoEBKYOyLlVsJWpXwTmCERA4GdTzmdfFveDbOP9xD9/ZhUICEQ4CnlvFWwc3YuGtxcEBEcgv/iHVZAquK7AQkD4xeuJf/5FMY2VKbgCgoAQaofwd6vh0bGd+tLn11YDLyyCJ+vKbuaD/1qmPyn5XZn+voJlcXXPQ96uxruJf4erMv3rdN/u4L9zXdyHRAXmq/F54nFsOYQfyyBHq1Mvh4VdxvRMYcWalphahGmJn4rnY33N3wL8DrMAv8MHm4KA8OtDcjuGm3g4F3L/NvLOF40wnxcIJcIUSYST6cPc+lUxXfXlOAqybmynOAIJ6DzA7/BDkKOQtzaH32wbEW62nAVZHk58CwgBPxRHQZbF++Lu9IhB/d4XLYjpyPTAr5jKuhl9oG00wvqY21XA3TvMCDusk0DLZNZ4PE4DrYu+OBcEoS0DfECvgi2TeaPx+Fhi3VR5FmS5uNEU7nHiW96dThuLxxDxLtDy7wJFlSCcRI8nyg1SPwZbLsNJ5PNGtoHhpPmbEutehz7I73FegHtFOQ/yucR758PB+A209iOPiPc4RLmYYWYXAV+3KE7gfi0iUZZPK/HoAy0f4AHHgXZqUU9Y1nZOZFni3l29DLKMzuwa4GFdoB3bXGj38mTZqKHui/thIJ0oc/1Tv/fhIbOS+2bDefDtcFkcDYNprFLHjYV3OShx7lHYZMpqFny5Rjr6MH0FSaexIl6Rdd/RyLLkOOrI8G060rI0fQVJp7GyfQOcB53WOk0S4vUyjHR1mukrSDyNle0a/INAIckUjvWyixTgU7sC2O6D7H3cTzdMfywmWFbzZOFYi3Y+aWZXANuJdr/DPPGy7MajuueKyRCN4YKDzG/Lm/nSAvWI9oGu6XWiszGIwzfuTc83LccQDf//o6RHGncd8Ua7COHYLiCuFxZBCstgO6jhzYnfVR7t+1yWWA853KWTgDvs35ebh0sCW+qLG+B4Xkcl5lVrwA6mFiJeljqzaqrQBd2+OqsGdmMe8APu+vw6RHxE/sJqgfqPQrwhLreTEvNufUe30MiH3Vx1Tn3Q7cnRBzyDrsR9vlNv9aRyGHhbcvQBz2QuIuwgHlEfge/oA57RQeAPf9RXspJj+3H0AY0fhYhI7Hh8DLztOPoA3yJFRDyafkQOhNcH3xmIiHi4kg8Ci75TEJHpHSbZTtyQCns2C75jcHXW9PG4SrB9eOIuTOS05IiIncR+HSWJhycZwIQOkuwo1vPcpiqe33GS7cGJcwjybTPLDmP4xtlZZc/2ZeI00bZwYpVBDGeJdhxXY/TYnQwny798o6OjUTCV9aRvoHYibU1ZueMcTGXt9Juoncl2unJz93a2dW7qCoI6TbhDcTSy3VHHVcL17KorCD6V9bHkjMiyODfykFni9evGUkggyw1kX3uonmmt305XnSZep24ohUT65Dub9X0jnSPK0E9f9qwrqNRpBTueVkPSjeG4qmD9Oe8BSX0sdUSklamtw4rC70GJUMEUyLKiHdL6ZPtxZTumvuS8JNdJc2jgW+1VZTun9TgreU/OHo1HG7Wum95HD+owq3QndVdMoh6ZHDQQDU9fhkr1DUTk9onbk3GHPVVQDsZwzyucnnLFFeWFRdBkRFr8gF+uxsVqfBr/vF6N8x1PE66D8arcXEXV4vz/u9V462MmINTrxBTDr6xDcj0G5iGvbh3VHBZXGa29X40/WwxQv5ouFTViTBkKaWO+tQia9a+Gp1nYrWFK8M14BIeAICIgHggID0dkmHr4o0XBht6txp9W478WBbStL+bxDZfqAiJiPOPwRkHgTjU/9sTweBJgDxGp6Sm+xm4ejOhtkcCjDCfWW3r8hvH1ezxcqQds7MQOtOlxVtwgCDzBUXFepMUxt+kDu9AV50VaOt8xs8kDprQMU1ZAGMO309pek+uowxOagT05cDRSzViMU5QAjkYMRx1AnqORuR2ycx0A2+qKmw8z3BQ4s6kCprWMTaarepsmkEUvJCHCMTddBWS0Pj/iTnbhANg6JMeOSIQDwNRWrLEUDqAls3JzOakAPO2qqt6mBLSqG789Oyp5/DTV8E5y7+gAuOVo3Dk66X73zX+ONgAecDDuLM8aj8k6Gs5tADzxyKT2aa719JRoEN4Li4CEujEor8vNifjsO9rz1fiwGu9X48LqRUBgv0EZQvKq3JxYngX+XS/G8WkMh2AgIBDM4RiW4c+Xt/55X0crQxyux1Bc3goHCAgkP2Lpxn/+8mjl1SMi8+GOWJQxGCIBAAAAAAAAAAAAAAAAAAAAAAAAAAAAAAAAAAAAAAAAAAAAAAAAAAAAAAAAAAAAAAAAAAAAAAAAAAAAAAAAAAAAAAAAAAAAAAAAAAAAAAAAAAAAAAAAAAAAAAAAAAAAAAAAAAAAAAAAAAAAAAAAAAAAAAAAAAAAAAAAAAAAAAAAAADQpv8JMACSQAWQexKCtAAAAABJRU5ErkJggg==;" vertex="1" parent="YExJR0wcEYklxGMGWOr0-16">
          <mxGeometry x="10" y="113.53999999999996" width="43" height="43" as="geometry" />
        </mxCell>
        <mxCell id="YExJR0wcEYklxGMGWOr0-45" value="&lt;font style=&quot;font-size: 18px;&quot; color=&quot;#030303&quot;&gt;Home&lt;/font&gt;" style="rounded=0;whiteSpace=wrap;html=1;shadow=0;fontSize=8;fontColor=#000000;strokeColor=#000000;fillColor=default;" vertex="1" parent="YExJR0wcEYklxGMGWOr0-16">
          <mxGeometry x="60" y="123.25" width="70" height="23" as="geometry" />
        </mxCell>
        <mxCell id="YExJR0wcEYklxGMGWOr0-44" value="&lt;font style=&quot;font-size: 11px;&quot; color=&quot;#030303&quot;&gt;&lt;b&gt;andrea.natalini@eng.it&lt;/b&gt;&lt;/font&gt;" style="rounded=0;whiteSpace=wrap;html=1;shadow=0;fontSize=8;fontColor=#000000;strokeColor=#000000;fillColor=default;" vertex="1" parent="YExJR0wcEYklxGMGWOr0-16">
          <mxGeometry x="1080" y="123.25" width="140" height="23" as="geometry" />
        </mxCell>
        <mxCell id="YExJR0wcEYklxGMGWOr0-49" value="&lt;font color=&quot;#030303&quot;&gt;&lt;span style=&quot;font-size: 18px;&quot;&gt;Recommedation System&lt;/span&gt;&lt;/font&gt;" style="rounded=0;whiteSpace=wrap;html=1;shadow=0;fontSize=8;fontColor=#000000;strokeColor=#000000;fillColor=default;" vertex="1" parent="YExJR0wcEYklxGMGWOr0-16">
          <mxGeometry x="144" y="123.25" width="270" height="23" as="geometry" />
        </mxCell>
        <mxCell id="YExJR0wcEYklxGMGWOr0-51" value="" style="strokeWidth=1;shadow=0;dashed=0;align=center;html=1;shape=mxgraph.mockup.containers.browserWindow;rSize=0;strokeColor=#666666;strokeColor2=#008cff;strokeColor3=#c4c4c4;mainText=,;recursiveResize=0;" vertex="1" parent="1">
          <mxGeometry y="1200" width="1240" height="560" as="geometry" />
        </mxCell>
        <mxCell id="YExJR0wcEYklxGMGWOr0-52" value="Recomm" style="strokeWidth=1;shadow=0;dashed=0;align=center;html=1;shape=mxgraph.mockup.containers.anchor;fontSize=17;fontColor=#666666;align=left;whiteSpace=wrap;" vertex="1" parent="YExJR0wcEYklxGMGWOr0-51">
          <mxGeometry x="60" y="12" width="210" height="26" as="geometry" />
        </mxCell>
        <mxCell id="YExJR0wcEYklxGMGWOr0-53" value="https://www.draw.io" style="strokeWidth=1;shadow=0;dashed=0;align=center;html=1;shape=mxgraph.mockup.containers.anchor;rSize=0;fontSize=17;fontColor=#666666;align=left;" vertex="1" parent="YExJR0wcEYklxGMGWOr0-51">
          <mxGeometry x="130" y="60" width="250" height="26" as="geometry" />
        </mxCell>
        <mxCell id="YExJR0wcEYklxGMGWOr0-55" value="" style="verticalLabelPosition=bottom;shadow=0;dashed=0;align=center;html=1;verticalAlign=top;strokeWidth=1;shape=mxgraph.mockup.graphics.columnChart;strokeColor=none;strokeColor2=none;strokeColor3=#666666;fillColor2=#008cff;fillColor3=#dddddd;" vertex="1" parent="YExJR0wcEYklxGMGWOr0-51">
          <mxGeometry x="90" y="240" width="420" height="210" as="geometry" />
        </mxCell>
        <mxCell id="YExJR0wcEYklxGMGWOr0-58" value="" style="rounded=0;whiteSpace=wrap;html=1;" vertex="1" parent="YExJR0wcEYklxGMGWOr0-51">
          <mxGeometry y="110" width="1240" height="50" as="geometry" />
        </mxCell>
        <mxCell id="YExJR0wcEYklxGMGWOr0-59" value="" style="shape=image;verticalLabelPosition=bottom;labelBackgroundColor=default;verticalAlign=top;aspect=fixed;imageAspect=0;image=data:image/png,iVBORw0KGgoAAAANSUhEUgAAAZAAAAGQCAYAAACAvzbMAAAAGXRFWHRTb2Z0d2FyZQBBZG9iZSBJbWFnZVJlYWR5ccllPAAADapJREFUeNrs3U1229YZgOHrpAtQZ50ZO7Ay68z0sKOoKwi8gqgrKLsCpSuQO+pQ7goor8DyCqiuQOqsM5eIwFRxJEukKOL77n2ec+5xck4byQCIl7j4KwUAAAAAAAAAAAAAAAAAAAAAAAAAAAAAAAAAAAAAAAAAAAAAAAAAAAAAAAAAAAAAAAAAAAAAAAAAAAAAAAAAAAAAAAAAAAAAAAAAAAAAAAAAAAAAAAAAAAAAAAAAAAAAAAAAAAAAAAAAAAAAAAAAAAAAAAAAAAAAAAAAAAAAAACgVi8sAirXjWMq16txYTUA5DNfjc8TjoVVQK2+sQgAEBAABAQAAQFAQABAQAAQEAAEBAABAUBAAEBAABAQAAQEAAEBQEAAQEAAEBAABAQAAQFAQABAQAAQEAAEBAABAUBAAEBAWtetxoHFQIDtEAEhkcPV+LgaCxFhQv1qLMc/gSTxuFqNz+P42HBE5reWwxRj0Xg8bi8LEYFk8Wg9IgISIx4iAknj0XJEBCROPEQEksaj1YgISKx4iAgkjUeLERGQePEQEUgaj9YiIiAx4yEikDQeLUVEQOLGQ0QgaTxaiYiAxI6HiEDSeLQQEQGJHw8RgaTxqD0iApIjHiICSeNRc0QEJE88RASSxqPWiAhIrniICCSNR40REZB88RARSBqP2iIiIDnjISKQNB41RURA8sZDRCBpPGqJiIDkjoeIQNJ41BARAckfDxGBpPHIHhEBqSMeIgJJ45E5IgJSTzxEBJLGI2tEBKSueIgIJI1HxogISH3xEBG45SzZBzdTRASkznh8Hr90Hdh9TOcbiyCEt6txkfCoaeEDXIUhHqfJfufr1Xgz/omANG39YRARxKPez4uA4EMhIuLhc4KA+HCIiHj4fCAgIiIiiAcCgoggHuIhIIgI4iEeAoIPj4iIh+2fW35nEaT5EC3GHXO2iGS8Vv9yHF86SLYOxAMBQUSeIQ4fxt9pvYM63+K/1Y1jHZaX47/PxEM8IJphRzU8QsRjTx5v2JnPxz/3+TscjjvvfuJ4ZHw8yaGPOohIje9Yz0I8ABFBPAARERHxEA8QERERD/EAERER8RAPEBEREQ/xAEQE8QBERETEQzxARJ5rnFl1G5mJByAipZw4AtnK0bhTFg+guYhclVjPjcq6ns/EA2gpImeOOnbqWDyAFiJybLU8i2FHvRQPoMaImLLaz7peiAdQU0SGn91ZDXtzIh5ADRHxettp9OIBZI7IqUU+eUT2damveICIiEdlDvcQEfEAEREPEREPYLqIiEc7EREPEBHxaCgi4gGEi4h45NCLBxApIh7J3k5ExAPYWUSW4pHSqXgAU0bEDiW3hXUNTBWR3uJKv64f8wBG8QB2GpETi6kKD12ZJR7ATiPy0eKpylw8gH1ExE6lTgvrmU28sAh4ZEQWt3Ymf1mNnyr5u3Xj32sYL8v/Hzk/u+N/ezmOwYfVuF6Ni9U4r2hZrC/HHv5ub8a/H8BOjkQWFewk+3LzSt1dPtZjWC7zCr6xHzvyAJ4rIl3S37sv+3uM/XBV00nJ+wKtzqYOtG7YEZ6W/b0P474jk96qAMgVjs+BxlJIAOIapqqmfBf4Y49InF8ACOSoTDtVtek4KZ4fBjD5UUe06apNprUcjQBMYNj57uvKquccx1YlwP5km7LyMi6AAPqKwvHlCXbnRQDEw5sdAcRDRADEo+SZzgLgiR564VGtw4l1gCcYpnJqutpq09HbBAC2s2g4HuvhZkOADc3Fw+uDietbi4Cghm/d/7QYfvaHcvP20HOLAuBhpq5+OzqbBcDX9WLh0l6AbSzF4t4xs3kAOPpwFALg6MNRCO35xiJ4snlFO6apDY9o72xSD/oxwO9Qy0UOjugEhB04D/A7/GA1pAnthdWAgBBlh9CNO0YeH5EpfbIKEBDW/t34DjGbqY/WHIEgIITZIXxvFWzksEw7jSUgCAi/OJ/wZw9P3J1ZBRubepmJiIBAuW58R5jV941vNwgIAUz9TdLjynMutw9WgYDA1F5bBFvpinenIyA0/k3SEUjOZecciIDA5HyL3t5swp/tHIiAQLM7QEBAeKJziyCtVxP+7EuLX0BgSqav8i4/AREQmJQT6CAgAAgIAAgIAAJCjS4tAhAQEJC2uIJOQMB7yBOb8nEirqATEPBiosT+YxEgILTK85QEGAEhsZcT//xzq2BrlxP+bFNYAgKTnwPxLTrnsnMSXUBg8oB8sgpSHrm9sgoEBKYOyLlVsJWpXwTmCERA4GdTzmdfFveDbOP9xD9/ZhUICEQ4CnlvFWwc3YuGtxcEBEcgv/iHVZAquK7AQkD4xeuJf/5FMY2VKbgCgoAQaofwd6vh0bGd+tLn11YDLyyCJ+vKbuaD/1qmPyn5XZn+voJlcXXPQ96uxruJf4erMv3rdN/u4L9zXdyHRAXmq/F54nFsOYQfyyBHq1Mvh4VdxvRMYcWalphahGmJn4rnY33N3wL8DrMAv8MHm4KA8OtDcjuGm3g4F3L/NvLOF40wnxcIJcIUSYST6cPc+lUxXfXlOAqybmynOAIJ6DzA7/BDkKOQtzaH32wbEW62nAVZHk58CwgBPxRHQZbF++Lu9IhB/d4XLYjpyPTAr5jKuhl9oG00wvqY21XA3TvMCDusk0DLZNZ4PE4DrYu+OBcEoS0DfECvgi2TeaPx+Fhi3VR5FmS5uNEU7nHiW96dThuLxxDxLtDy7wJFlSCcRI8nyg1SPwZbLsNJ5PNGtoHhpPmbEutehz7I73FegHtFOQ/yucR758PB+A209iOPiPc4RLmYYWYXAV+3KE7gfi0iUZZPK/HoAy0f4AHHgXZqUU9Y1nZOZFni3l29DLKMzuwa4GFdoB3bXGj38mTZqKHui/thIJ0oc/1Tv/fhIbOS+2bDefDtcFkcDYNprFLHjYV3OShx7lHYZMpqFny5Rjr6MH0FSaexIl6Rdd/RyLLkOOrI8G060rI0fQVJp7GyfQOcB53WOk0S4vUyjHR1mukrSDyNle0a/INAIckUjvWyixTgU7sC2O6D7H3cTzdMfywmWFbzZOFYi3Y+aWZXANuJdr/DPPGy7MajuueKyRCN4YKDzG/Lm/nSAvWI9oGu6XWiszGIwzfuTc83LccQDf//o6RHGncd8Ua7COHYLiCuFxZBCstgO6jhzYnfVR7t+1yWWA853KWTgDvs35ebh0sCW+qLG+B4Xkcl5lVrwA6mFiJeljqzaqrQBd2+OqsGdmMe8APu+vw6RHxE/sJqgfqPQrwhLreTEvNufUe30MiH3Vx1Tn3Q7cnRBzyDrsR9vlNv9aRyGHhbcvQBz2QuIuwgHlEfge/oA57RQeAPf9RXspJj+3H0AY0fhYhI7Hh8DLztOPoA3yJFRDyafkQOhNcH3xmIiHi4kg8Ci75TEJHpHSbZTtyQCns2C75jcHXW9PG4SrB9eOIuTOS05IiIncR+HSWJhycZwIQOkuwo1vPcpiqe33GS7cGJcwjybTPLDmP4xtlZZc/2ZeI00bZwYpVBDGeJdhxXY/TYnQwny798o6OjUTCV9aRvoHYibU1ZueMcTGXt9Juoncl2unJz93a2dW7qCoI6TbhDcTSy3VHHVcL17KorCD6V9bHkjMiyODfykFni9evGUkggyw1kX3uonmmt305XnSZep24ohUT65Dub9X0jnSPK0E9f9qwrqNRpBTueVkPSjeG4qmD9Oe8BSX0sdUSklamtw4rC70GJUMEUyLKiHdL6ZPtxZTumvuS8JNdJc2jgW+1VZTun9TgreU/OHo1HG7Wum95HD+owq3QndVdMoh6ZHDQQDU9fhkr1DUTk9onbk3GHPVVQDsZwzyucnnLFFeWFRdBkRFr8gF+uxsVqfBr/vF6N8x1PE66D8arcXEXV4vz/u9V462MmINTrxBTDr6xDcj0G5iGvbh3VHBZXGa29X40/WwxQv5ouFTViTBkKaWO+tQia9a+Gp1nYrWFK8M14BIeAICIgHggID0dkmHr4o0XBht6txp9W478WBbStL+bxDZfqAiJiPOPwRkHgTjU/9sTweBJgDxGp6Sm+xm4ejOhtkcCjDCfWW3r8hvH1ezxcqQds7MQOtOlxVtwgCDzBUXFepMUxt+kDu9AV50VaOt8xs8kDprQMU1ZAGMO309pek+uowxOagT05cDRSzViMU5QAjkYMRx1AnqORuR2ycx0A2+qKmw8z3BQ4s6kCprWMTaarepsmkEUvJCHCMTddBWS0Pj/iTnbhANg6JMeOSIQDwNRWrLEUDqAls3JzOakAPO2qqt6mBLSqG789Oyp5/DTV8E5y7+gAuOVo3Dk66X73zX+ONgAecDDuLM8aj8k6Gs5tADzxyKT2aa719JRoEN4Li4CEujEor8vNifjsO9rz1fiwGu9X48LqRUBgv0EZQvKq3JxYngX+XS/G8WkMh2AgIBDM4RiW4c+Xt/55X0crQxyux1Bc3goHCAgkP2Lpxn/+8mjl1SMi8+GOWJQxGCIBAAAAAAAAAAAAAAAAAAAAAAAAAAAAAAAAAAAAAAAAAAAAAAAAAAAAAAAAAAAAAAAAAAAAAAAAAAAAAAAAAAAAAAAAAAAAAAAAAAAAAAAAAAAAAAAAAAAAAAAAAAAAAAAAAAAAAAAAAAAAAAAAAAAAAAAAAAAAAAAAAAAAAAAAAADQpv8JMACSQAWQexKCtAAAAABJRU5ErkJggg==;" vertex="1" parent="YExJR0wcEYklxGMGWOr0-51">
          <mxGeometry x="10" y="113.53999999999996" width="43" height="43" as="geometry" />
        </mxCell>
        <mxCell id="YExJR0wcEYklxGMGWOr0-60" value="&lt;font style=&quot;font-size: 18px;&quot; color=&quot;#030303&quot;&gt;Home&lt;/font&gt;" style="rounded=0;whiteSpace=wrap;html=1;shadow=0;fontSize=8;fontColor=#000000;strokeColor=#000000;fillColor=default;" vertex="1" parent="YExJR0wcEYklxGMGWOr0-51">
          <mxGeometry x="60" y="123.25" width="70" height="23" as="geometry" />
        </mxCell>
        <mxCell id="YExJR0wcEYklxGMGWOr0-61" value="&lt;font style=&quot;font-size: 11px;&quot; color=&quot;#030303&quot;&gt;&lt;b&gt;andrea.natalini@eng.it&lt;/b&gt;&lt;/font&gt;" style="rounded=0;whiteSpace=wrap;html=1;shadow=0;fontSize=8;fontColor=#000000;strokeColor=#000000;fillColor=default;" vertex="1" parent="YExJR0wcEYklxGMGWOr0-51">
          <mxGeometry x="1080" y="123.25" width="140" height="23" as="geometry" />
        </mxCell>
        <mxCell id="YExJR0wcEYklxGMGWOr0-62" value="&lt;font color=&quot;#030303&quot;&gt;&lt;span style=&quot;font-size: 18px;&quot;&gt;Recommedation System&lt;/span&gt;&lt;/font&gt;" style="rounded=0;whiteSpace=wrap;html=1;shadow=0;fontSize=8;fontColor=#000000;strokeColor=#000000;fillColor=default;" vertex="1" parent="YExJR0wcEYklxGMGWOr0-51">
          <mxGeometry x="144" y="123.25" width="270" height="23" as="geometry" />
        </mxCell>
        <mxCell id="YExJR0wcEYklxGMGWOr0-63" value="" style="strokeWidth=1;shadow=0;dashed=0;align=center;html=1;shape=mxgraph.mockup.containers.rrect;rSize=0;strokeColor=#666666;" vertex="1" parent="YExJR0wcEYklxGMGWOr0-51">
          <mxGeometry x="670" y="190" width="540" height="290" as="geometry" />
        </mxCell>
        <mxCell id="YExJR0wcEYklxGMGWOr0-64" value="Recommendations" style="strokeColor=inherit;fillColor=inherit;gradientColor=inherit;strokeWidth=1;shadow=0;dashed=0;align=center;html=1;shape=mxgraph.mockup.containers.rrect;rSize=0;fontSize=17;fontColor=#666666;fontStyle=1;resizeWidth=1;whiteSpace=wrap;" vertex="1" parent="YExJR0wcEYklxGMGWOr0-63">
          <mxGeometry width="540" height="26" relative="1" as="geometry" />
        </mxCell>
        <mxCell id="YExJR0wcEYklxGMGWOr0-65" value="Item #1" style="strokeColor=inherit;fillColor=inherit;gradientColor=inherit;strokeWidth=1;shadow=0;dashed=0;align=center;html=1;shape=mxgraph.mockup.containers.rrect;rSize=0;fontSize=17;fontColor=#666666;fontStyle=1;resizeWidth=1;whiteSpace=wrap;" vertex="1" parent="YExJR0wcEYklxGMGWOr0-63">
          <mxGeometry width="540" height="26" relative="1" as="geometry">
            <mxPoint y="26" as="offset" />
          </mxGeometry>
        </mxCell>
        <mxCell id="YExJR0wcEYklxGMGWOr0-66" value="Item #2" style="strokeWidth=1;shadow=0;dashed=0;align=center;html=1;shape=mxgraph.mockup.containers.rrect;rSize=0;fontSize=17;fontColor=#ffffff;fontStyle=1;fillColor=#008cff;strokeColor=#008cff;resizeWidth=1;whiteSpace=wrap;" vertex="1" parent="YExJR0wcEYklxGMGWOr0-63">
          <mxGeometry width="540" height="26" relative="1" as="geometry">
            <mxPoint y="52" as="offset" />
          </mxGeometry>
        </mxCell>
        <mxCell id="YExJR0wcEYklxGMGWOr0-67" value="Item #N" style="strokeColor=inherit;fillColor=inherit;gradientColor=inherit;strokeWidth=1;shadow=0;dashed=0;align=center;html=1;shape=mxgraph.mockup.containers.rrect;rSize=0;fontSize=17;fontColor=#666666;fontStyle=1;resizeWidth=1;whiteSpace=wrap;" vertex="1" parent="YExJR0wcEYklxGMGWOr0-63">
          <mxGeometry y="1" width="540" height="26" relative="1" as="geometry">
            <mxPoint y="-26" as="offset" />
          </mxGeometry>
        </mxCell>
        <mxCell id="YExJR0wcEYklxGMGWOr0-68" value="Historical Data Plot&lt;div&gt;The Manager can Select the Aparment and the Device to be shown here&lt;/div&gt;" style="strokeWidth=1;shadow=0;dashed=0;align=center;html=1;shape=mxgraph.mockup.text.stickyNote2;fontColor=#666666;mainText=;fontSize=17;whiteSpace=wrap;fillColor=#ffffcc;strokeColor=#F62E00;" vertex="1" parent="1">
          <mxGeometry x="-460" y="910" width="327" height="200" as="geometry" />
        </mxCell>
        <mxCell id="YExJR0wcEYklxGMGWOr0-69" value="Forecasted Data Plot&lt;div&gt;The Manager can see here the Building Consumption Forecasting&lt;/div&gt;" style="strokeWidth=1;shadow=0;dashed=0;align=center;html=1;shape=mxgraph.mockup.text.stickyNote2;fontColor=#666666;mainText=;fontSize=17;whiteSpace=wrap;fillColor=#ffffcc;strokeColor=#F62E00;" vertex="1" parent="1">
          <mxGeometry x="1260" y="860" width="360" height="200" as="geometry" />
        </mxCell>
        <mxCell id="YExJR0wcEYklxGMGWOr0-72" style="edgeStyle=orthogonalEdgeStyle;rounded=0;orthogonalLoop=1;jettySize=auto;html=1;curved=1;" edge="1" parent="1" source="YExJR0wcEYklxGMGWOr0-32" target="YExJR0wcEYklxGMGWOr0-68">
          <mxGeometry relative="1" as="geometry" />
        </mxCell>
        <mxCell id="YExJR0wcEYklxGMGWOr0-73" style="edgeStyle=orthogonalEdgeStyle;rounded=0;orthogonalLoop=1;jettySize=auto;html=1;curved=1;" edge="1" parent="1" source="YExJR0wcEYklxGMGWOr0-34" target="YExJR0wcEYklxGMGWOr0-69">
          <mxGeometry relative="1" as="geometry" />
        </mxCell>
        <mxCell id="YExJR0wcEYklxGMGWOr0-74" value="Comfort Status" style="strokeWidth=1;shadow=0;dashed=0;align=center;html=1;shape=mxgraph.mockup.text.stickyNote2;fontColor=#666666;mainText=;fontSize=17;whiteSpace=wrap;fillColor=#ffffcc;strokeColor=#F62E00;" vertex="1" parent="1">
          <mxGeometry x="-470" y="1450" width="327" height="200" as="geometry" />
        </mxCell>
        <mxCell id="YExJR0wcEYklxGMGWOr0-75" style="edgeStyle=orthogonalEdgeStyle;rounded=0;orthogonalLoop=1;jettySize=auto;html=1;curved=1;" edge="1" parent="1" target="YExJR0wcEYklxGMGWOr0-74">
          <mxGeometry relative="1" as="geometry">
            <mxPoint x="91" y="1530" as="sourcePoint" />
          </mxGeometry>
        </mxCell>
        <mxCell id="YExJR0wcEYklxGMGWOr0-77" value="Recommendation list" style="strokeWidth=1;shadow=0;dashed=0;align=center;html=1;shape=mxgraph.mockup.text.stickyNote2;fontColor=#666666;mainText=;fontSize=17;whiteSpace=wrap;fillColor=#ffffcc;strokeColor=#F62E00;" vertex="1" parent="1">
          <mxGeometry x="1349" y="1420" width="360" height="200" as="geometry" />
        </mxCell>
        <mxCell id="YExJR0wcEYklxGMGWOr0-78" style="edgeStyle=orthogonalEdgeStyle;rounded=0;orthogonalLoop=1;jettySize=auto;html=1;curved=1;" edge="1" parent="1" target="YExJR0wcEYklxGMGWOr0-77">
          <mxGeometry relative="1" as="geometry">
            <mxPoint x="1210" y="1550" as="sourcePoint" />
          </mxGeometry>
        </mxCell>
      </root>
    </mxGraphModel>
  </diagram>
</mxfile>
